name Run_500 02_newCOP3_v24.mot
datacolumns 19
datarows 94
range 0.03 0.123
DataType=double
version=3
OpenSimVersion=4.3-2021-08-27-4bc7ad9
endheader
time	R_ground_force_vx	R_ground_force_vy	R_ground_force_vz	R_ground_force_px	R_ground_force_py	R_ground_force_pz	L_ground_force_vx	L_ground_force_vy	L_ground_force_vz	L_ground_force_px	L_ground_force_py	L_ground_force_pz	R_ground_torque_x	R_ground_torque_y	R_ground_torque_z	L_ground_torque_x	L_ground_torque_y	L_ground_torque_z
0.03	0	0	0	0	0	0	-173.214783	1143.269043	-183.182434	0.848698	0	-0.372308	0	0	0	-0	16.092722	-0
0.031	0	0	0	0	0	0	-171.16745	1155.149536	-165.722336	0.847426	0	-0.36828	0	0	0	-0	14.93677	-0
0.032	0	0	0	0	0	0	-169.004318	1167.316162	-147.997009	0.846075	0	-0.36443	0	0	0	-0	13.759895	-0
0.033	0	0	0	0	0	0	-166.718536	1179.669434	-130.208847	0.844645	0	-0.360765	0	0	0	-0	12.567101	-0
0.034	0	0	0	0	0	0	-164.301117	1192.118774	-112.547997	0.843136	0	-0.357289	0	0	0	-0	11.363606	-0
0.035	0	0	0	0	0	0	-161.742142	1204.581055	-95.19332900000001	0.841551	0	-0.354004	0	0	0	-0	10.154802	-0
0.036	0	0	0	0	0	0	-159.031509	1216.97937	-78.311829	0.83989	0	-0.350913	0	0	0	-0	8.946210000000001	-0
0.037	0	0	0	0	0	0	-156.159668	1229.243164	-62.057526	0.838153	0	-0.348015	0	0	0	-0	7.743446	-0
0.038	0	0	0	0	0	0	-153.118118	1241.30835	-46.570068	0.8363429999999999	0	-0.345311	0	0	0	-0	6.552175	-0
0.039	0	0	0	0	0	0	-149.899979	1253.116699	-31.973276	0.834461	0	-0.342798	0	0	0	-0	5.378067	-0
0.04	0	0	0	0	0	0	-146.500381	1264.616821	-18.37389	0.832507	0	-0.340474	0	0	0	-0	4.226754	-0
0.041	0	0	0	0	0	0	-142.916931	1275.763306	-5.860486	0.830485	0	-0.338335	0	0	0	-0	3.103787	-0
0.042	0	0	0	0	0	0	-139.149963	1286.517212	5.497278	0.828394	0	-0.336378	0	0	0	-0	2.014589	-0
0.043	0	0	0	0	0	0	-135.20282	1296.845459	15.649122	0.826236	0	-0.334597	0	0	0	-0	0.964409	-0
0.044	0	0	0	0	0	0	-131.08194	1306.720459	24.564268	0.824014	0	-0.332989	0	0	0	0	-0.041714	0
0.045	0	0	0	0	0	0	-126.79686	1316.119873	32.231228	0.821728	0	-0.331546	0	0	0	0	-0.999003	0
0.046	0	0	0	0	0	0	-122.360046	1325.026001	38.657269	0.819381	0	-0.330263	0	0	0	0	-1.902975	0
0.047	0	0	0	0	0	0	-117.786667	1333.425781	43.867577	0.8169729999999999	0	-0.329133	0	0	0	0	-2.749486	0
0.048	0	0	0	0	0	0	-113.094208	1341.309814	47.90414	0.814508	0	-0.32815	0	0	0	0	-3.534766	0
0.049	0	0	0	0	0	0	-108.30201	1348.672363	50.824337	0.811986	0	-0.327307	0	0	0	0	-4.255451	0
0.05	0	0	0	0	0	0	-103.430763	1355.510986	52.699352	0.809409	0	-0.326597	0	0	0	0	-4.908614	0
0.051	0	0	0	0	0	0	-98.501938	1361.826294	53.612335	0.806779	0	-0.326012	0	0	0	0	-5.491794	0
0.052	0	0	0	0	0	0	-93.537201	1367.62146	53.656429	0.804098	0	-0.325546	0	0	0	0	-6.003019	0
0.053	0	0	0	0	0	0	-88.55789900000001	1372.902466	52.932682	0.8013670000000001	0	-0.32519	0	0	0	0	-6.440824	0
0.054	0	0	0	0	0	0	-83.584534	1377.67749	51.547848	0.79859	0	-0.324938	0	0	0	0	-6.804265	0
0.055	0	0	0	0	0	0	-78.63632200000001	1381.956909	49.612164	0.795766	0	-0.324783	0	0	0	0	-7.092933	0
0.056	0	0	0	0	0	0	-73.730812	1385.753174	47.237103	0.792899	0	-0.324716	0	0	0	0	-7.306952	0
0.057	0	0	0	0	0	0	-68.88361399999999	1389.080566	44.533195	0.78999	0	-0.324731	0	0	0	0	-7.44699	0
0.058	0	0	0	0	0	0	-64.108192	1391.954956	41.607922	0.787041	0	-0.324821	0	0	0	0	-7.514242	0
0.059	0	0	0	0	0	0	-59.415749	1394.393677	38.563713	0.7840549999999999	0	-0.324978	0	0	0	0	-7.510432	0
0.06	0	0	0	0	0	0	-54.815189	1396.414917	35.496147	0.7810319999999999	0	-0.325195	0	0	0	0	-7.43779	0
0.061	0	0	0	0	0	0	-50.31316	1398.037964	32.492321	0.7779740000000001	0	-0.325467	0	0	0	0	-7.299036	0
0.062	0	0	0	0	0	0	-45.914112	1399.282471	29.629509	0.774885	0	-0.325786	0	0	0	0	-7.097355	0
0.063	0	0	0	0	0	0	-41.620468	1400.168335	26.974049	0.771765	0	-0.326145	0	0	0	0	-6.836371	0
0.064	0	0	0	0	0	0	-37.432732	1400.715332	24.580547	0.768617	0	-0.326539	0	0	0	0	-6.52011	0
0.065	0	0	0	0	0	0	-33.34967	1400.942871	22.491413	0.765441	0	-0.326961	0	0	0	0	-6.152966	0
0.066	0	0	0	0	0	0	-29.368475	1400.869751	20.736696	0.7622409999999999	0	-0.327407	0	0	0	0	-5.739661	0
0.067	0	0	0	0	0	0	-25.484892	1400.51355	19.334261	0.759018	0	-0.327869	0	0	0	0	-5.285201	0
0.068	0	0	0	0	0	0	-21.693359	1399.890869	18.290268	0.755773	0	-0.328344	0	0	0	0	-4.794833	0
0.06900000000000001	0	0	0	0	0	0	-17.987127	1399.016724	17.599943	0.752509	0	-0.328825	0	0	0	0	-4.273993	0
0.07000000000000001	0	0	0	0	0	0	-14.35835	1397.904541	17.24861	0.749227	0	-0.329309	0	0	0	0	-3.728263	0
0.07099999999999999	0	0	0	0	0	0	-10.798202	1396.56604	17.212934	0.745928	0	-0.329791	0	0	0	0	-3.163312	0
0.07199999999999999	0	0	0	0	0	0	-7.296986	1395.010742	17.462328	0.742615	0	-0.330267	0	0	0	0	-2.584855	0
0.073	0	0	0	0	0	0	-3.844272	1393.24646	17.960491	0.739287	0	-0.330733	0	0	0	0	-1.998596	0
0.074	0	0	0	0	0	0	-0.429065	1391.278931	18.666988	0.735948	0	-0.331185	0	0	0	0	-1.410181	0
0.075	0	0	0	0	0	0	2.95999	1389.112061	19.538843	0.732598	0	-0.331621	0	0	0	0	-0.825147	0
0.076	0	0	0	0	0	0	6.334358	1386.747681	20.532082	0.729239	0	-0.332038	0	0	0	0	-0.248875	0
0.077	0	0	0	0	0	0	9.705332	1384.186157	21.603165	0.725871	0	-0.332432	0	0	0	-0	0.313454	-0
0.078	0	0	0	0	0	0	13.083722	1381.426025	22.710289	0.722495	0	-0.332803	0	0	0	-0	0.856903	-0
0.079	0	0	0	0	0	0	16.479528	1378.4646	23.814499	0.719112	0	-0.333147	0	0	0	-0	1.37682	-0
0.08	0	0	0	0	0	0	19.901621	1375.297974	24.8806	0.715723	0	-0.333464	0	0	0	-0	1.868872	-0
0.081	0	0	0	0	0	0	23.357452	1371.921143	25.877844	0.712329	0	-0.333752	0	0	0	-0	2.329081	-0
0.082	0	0	0	0	0	0	26.852793	1368.328369	26.780388	0.7089299999999999	0	-0.33401	0	0	0	-0	2.75385	-0
0.083	0	0	0	0	0	0	30.39156	1364.513306	27.567533	0.705526	0	-0.334237	0	0	0	-0	3.139992	-0
0.08400000000000001	0	0	0	0	0	0	33.975708	1360.468628	28.223743	0.702118	0	-0.334433	0	0	0	-0	3.484749	-0
0.08500000000000001	0	0	0	0	0	0	37.605206	1356.187012	28.738462	0.698705	0	-0.334598	0	0	0	-0	3.785808	-0
0.08599999999999999	0	0	0	0	0	0	41.278122	1351.6604	29.105778	0.695287	0	-0.334732	0	0	0	-0	4.041312	-0
0.08699999999999999	0	0	0	0	0	0	44.990799	1346.880615	29.323925	0.691864	0	-0.334834	0	0	0	-0	4.249871	-0
0.08799999999999999	0	0	0	0	0	0	48.738091	1341.838989	29.394686	0.688437	0	-0.334906	0	0	0	-0	4.410563	-0
0.089	0	0	0	0	0	0	52.51371	1336.526367	29.322731	0.685003	0	-0.334948	0	0	0	-0	4.522931	-0
0.09	0	0	0	0	0	0	56.310596	1330.933716	29.114895	0.681563	0	-0.334961	0	0	0	-0	4.586979	-0
0.091	0	0	0	0	0	0	60.12133	1325.051392	28.779478	0.678115	0	-0.334946	0	0	0	-0	4.603163	-0
0.092	0	0	0	0	0	0	63.93856	1318.869385	28.325556	0.67466	0	-0.334904	0	0	0	-0	4.572374	-0
0.093	0	0	0	0	0	0	67.755409	1312.378052	27.762352	0.671195	0	-0.334836	0	0	0	-0	4.495923	-0
0.094	0	0	0	0	0	0	71.56585699999999	1305.567017	27.0987	0.667719	0	-0.334743	0	0	0	-0	4.375519	-0
0.095	0	0	0	0	0	0	75.36505099999999	1298.426147	26.342592	0.664232	0	-0.334628	0	0	0	-0	4.213244	-0
0.096	0	0	0	0	0	0	79.149559	1290.945313	25.500864	0.660732	0	-0.33449	0	0	0	-0	4.011527	-0
0.097	0	0	0	0	0	0	82.917526	1283.114258	24.578976	0.6572170000000001	0	-0.334332	0	0	0	-0	3.773113	-0
0.098	0	0	0	0	0	0	86.668755	1274.922974	23.580936	0.653687	0	-0.334156	0	0	0	-0	3.501033	-0
0.099	0	0	0	0	0	0	90.40467099999999	1266.361694	22.509336	0.650139	0	-0.333962	0	0	0	-0	3.198568	-0
0.1	0	0	0	0	0	0	94.128212	1257.420532	21.36549	0.646571	0	-0.333752	0	0	0	-0	2.869214	-0
0.101	0	0	0	0	0	0	97.843605	1248.089966	20.149673	0.642983	0	-0.333529	0	0	0	-0	2.516646	-0
0.102	0	0	0	0	0	0	101.556137	1238.360596	18.861423	0.6393720000000001	0	-0.333292	0	0	0	-0	2.144684	-0
0.103	0	0	0	0	0	0	105.271797	1228.2229	17.499908	0.635736	0	-0.333044	0	0	0	-0	1.75725	-0
0.104	0	0	0	0	0	0	108.996933	1217.667603	16.064306	0.6320750000000001	0	-0.332787	0	0	0	-0	1.358335	-0
0.105	0	0	0	0	0	0	112.737885	1206.685303	14.554199	0.628385	0	-0.332521	0	0	0	-0	0.951958	-0
0.106	0	0	0	0	0	0	116.500595	1195.266479	12.969951	0.6246660000000001	0	-0.332248	0	0	0	-0	0.542133	-0
0.107	0	0	0	0	0	0	120.290306	1183.401855	11.313037	0.620916	0	-0.331969	0	0	0	-0	0.132833	-0
0.108	0	0	0	0	0	0	124.111229	1171.081665	9.586323	0.617133	0	-0.331685	0	0	0	0	-0.272047	0
0.109	0	0	0	0	0	0	127.966278	1158.296509	7.794273	0.613314	0	-0.331398	0	0	0	0	-0.66872	0
0.11	0	0	0	0	0	0	131.856873	1145.037109	5.94307	0.60946	0	-0.331109	0	0	0	0	-1.053538	0
0.111	0	0	0	0	0	0	135.782791	1131.294434	4.040653	0.605567	0	-0.330818	0	0	0	0	-1.423024	0
0.112	0	0	0	0	0	0	139.741989	1117.060059	2.096661	0.6016359999999999	0	-0.330527	0	0	0	0	-1.773894	0
0.113	0	0	0	0	0	0	143.730576	1102.326172	0.122295	0.5976630000000001	0	-0.330237	0	0	0	0	-2.103085	0
0.114	0	0	0	0	0	0	147.742661	1087.086426	-1.869902	0.593648	0	-0.329948	0	0	0	0	-2.407779	0
0.115	0	0	0	0	0	0	151.77037	1071.335815	-3.866332	0.5895899999999999	0	-0.329661	0	0	0	0	-2.685413	0
0.116	0	0	0	0	0	0	155.803696	1055.071045	-5.852679	0.585486	0	-0.329378	0	0	0	0	-2.933709	0
0.117	0	0	0	0	0	0	159.830521	1038.291504	-7.814296	0.581338	0	-0.329098	0	0	0	0	-3.150676	0
0.118	0	0	0	0	0	0	163.836395	1020.999023	-9.736601	0.577142	0	-0.328823	0	0	0	0	-3.334628	0
0.119	0	0	0	0	0	0	167.804596	1003.198608	-11.605493	0.572899	0	-0.328552	0	0	0	0	-3.48419	0
0.12	0	0	0	0	0	0	171.715942	984.898804	-13.407741	0.568607	0	-0.328288	0	0	0	0	-3.598302	0
0.121	0	0	0	0	0	0	175.548752	966.111755	-15.131359	0.564265	0	-0.328029	0	0	0	0	-3.676226	0
0.122	0	0	0	0	0	0	179.278854	946.85376	-16.765936	0.559874	0	-0.327777	0	0	0	0	-3.717542	0
0.123	0	0	0	0	0	0	182.879623	927.145203	-18.302896	0.555433	0	-0.327533	0	0	0	0	-3.722146	0
